<svg viewBox="0 0 48 48" xmlns="http://www.w3.org/2000/svg">
  <!-- Google Drive triangle logo with Sheets/Docs/Slides colors -->
  <path d="M16.26 3L3.6 25.2l6.3 10.8h12.6L35.1 13.2 22.44 3h-6.18z" fill="#0F9D58"/>
  <path d="M3.6 25.2l6.3 10.8h25.2l6.3-10.8H3.6z" fill="#4285F4"/>
  <path d="M35.1 13.2l6.3 10.8 6.3-10.8L41.4 2.4 35.1 13.2z" fill="#FBBC04"/>
  <path d="M22.44 3L9.9 36h12.6l12.6-22.8L22.44 3z" fill="#EA4335" fill-opacity="0.5"/>
  <path d="M35.1 36l6.3-10.8H16.2l-6.3 10.8H35.1z" fill="#4285F4"/>
  <path d="M22.5 36H35.1l6.3-10.8H28.8L22.5 36z" fill="#188038"/>
  <!-- Document icon overlay -->
  <rect x="18" y="16" width="12" height="16" rx="1.5" fill="white"/>
  <rect x="20" y="20" width="8" height="1" fill="#0F9D58"/>
  <rect x="20" y="23" width="8" height="1" fill="#4285F4"/>
  <rect x="20" y="26" width="5" height="1" fill="#FBBC04"/>
</svg>
