<svg xmlns="http://www.w3.org/2000/svg" viewBox="0 0 200 200">
  <g>
    <!-- Google "G" logo colors -->
    <path fill="#4285F4" d="M100,40 C125.4,40 144.2,50.3 155.8,61.9 L135.3,82.4 C127.6,74.7 117.3,70 100,70 C75.1,70 54.5,87.6 49.5,110.8 L26.7,93.2 C36.8,64.1 65.8,40 100,40 Z"/>
    <path fill="#34A853" d="M49.5,110.8 C47.5,105 46.4,98.7 46.4,92 C46.4,85.3 47.5,79 49.5,73.2 L26.7,55.6 C20.9,67.5 17.5,81.3 17.5,95.8 C17.5,110.3 20.9,124.1 26.7,136 Z"/>
    <path fill="#FBBC05" d="M100,122 C117.3,122 127.6,117.3 135.3,109.6 L155.8,130.1 C144.2,141.7 125.4,152 100,152 C65.8,152 36.8,127.9 26.7,98.8 L49.5,81.2 C54.5,104.4 75.1,122 100,122 Z"/>
    <path fill="#EA4335" d="M182.5,96 C182.5,90.4 181.8,85.2 180.6,80.3 L100,80.3 L100,112.7 L146.7,112.7 C143.9,123.9 136.4,132.4 125.8,138.1 L148.6,155.7 C168.2,137.5 182.5,118.3 182.5,96 Z"/>
  </g>

  <!-- "Internal" badge -->
  <g>
    <rect x="135" y="155" width="60" height="25" rx="4" fill="#666" opacity="0.9"/>
    <text x="165" y="171" font-family="Arial, sans-serif" font-size="11" font-weight="bold" fill="white" text-anchor="middle">INTERNAL</text>
  </g>
</svg>
