<svg xmlns="http://www.w3.org/2000/svg" viewBox="0 0 1000 1000">
  <path fill="currentColor" d="M386.2,616.2l332.5-245.7c16.3-12,39.6-7.3,47.4,11.4c40.9,98.7,22.6,217.3-58.7,298.7
	C626,762,512.8,779.8,409.4,739.2l-113,52.4c162,110.9,358.8,83.5,481.8-39.7C875.8,654.2,906,521.1,877.7,401l0.3,0.3
	C837,224.9,888,154.5,992.6,10.3c2.5-3.4,4.9-6.8,7.4-10.3L862.4,137.7v-0.4L386.2,616.2"/>
  <path fill="currentColor" d="M317.6,676c-116.3-111.2-96.3-283.4,3-382.7
	c73.4-73.5,193.6-103.5,298.6-59.4l112.7-52.1c-20.3-14.7-46.3-30.5-76.2-41.6c-135-55.6-296.6-27.9-406.3,81.8
	c-105.6,105.7-138.7,268.2-81.7,406.8c42.6,103.6-27.2,176.9-97.5,250.9C45.1,906,20.1,932.3,0,960L317.6,676"/>
</svg>
